HIERARCHY
ROOT hip
{
  OFFSET 0 0 0
  CHANNELS 6 Xposition Yposition Zposition Zrotation Yrotation Xrotation
  JOINT abdomen
  {
    OFFSET 0 20.6881 -0.73152
    CHANNELS 3 Zrotation Xrotation Yrotation
    JOINT chest
    {
      OFFSET 0 11.7043 -0.48768
      CHANNELS 3 Zrotation Xrotation Yrotation
      JOINT neck
      {
        OFFSET 0 22.1894 -2.19456
        CHANNELS 3 Zrotation Xrotation Yrotation
        JOINT head
        {
          OFFSET -0.24384 7.07133 1.2192
          CHANNELS 3 Zrotation Xrotation Yrotation
          JOINT leftEye
          {
            OFFSET 4.14528 8.04674 8.04672
            CHANNELS 3 Zrotation Xrotation Yrotation
            End Site
            {
              OFFSET 1 0 0
            }
          }
          JOINT rightEye
          {
            OFFSET -3.6576 8.04674 8.04672
            CHANNELS 3 Zrotation Xrotation Yrotation
            End Site
            {
              OFFSET 1 0 0
            }
          }
        }
      }
      JOINT rCollar
      {
        OFFSET -2.68224 19.2634 -4.8768
        CHANNELS 3 Zrotation Xrotation Yrotation
        JOINT rShldr
        {
          OFFSET -8.77824 -1.95073 1.46304
          CHANNELS 3 Zrotation Xrotation Yrotation
          JOINT rForeArm
          {
            OFFSET -28.1742 -1.7115 0.48768
            CHANNELS 3 Zrotation Xrotation Yrotation
            JOINT rHand
            {
              OFFSET -22.5879 0.773209 7.07136
              CHANNELS 3 Zrotation Xrotation Yrotation
              JOINT rThumb1
              {
                OFFSET -1.2192 -0.487915 3.41376
                CHANNELS 3 Zrotation Xrotation Yrotation
                JOINT rThumb2
                {
                  OFFSET -3.37035 -0.52449 3.41376
                  CHANNELS 3 Zrotation Xrotation Yrotation
                  End Site
                  {
                    OFFSET -1.78271 -1.18214 1.43049
                  }
                }
              }
              JOINT rIndex1
              {
                OFFSET -7.75947 0.938293 5.60832
                CHANNELS 3 Zrotation Xrotation Yrotation
                JOINT rIndex2
                {
                  OFFSET -2.54057 -0.884171 1.56538
                  CHANNELS 3 Zrotation Xrotation Yrotation
                  End Site
                  {
                    OFFSET -1.62519 -0.234802 1.16502
                  }
                }
              }
              JOINT rMid1
              {
                OFFSET -8.24714 1.18213 3.41376
                CHANNELS 3 Zrotation Xrotation Yrotation
                JOINT rMid2
                {
                  OFFSET -3.10165 -0.590103 1.0647
                  CHANNELS 3 Zrotation Xrotation Yrotation
                  End Site
                  {
                    OFFSET -2.48547 -0.328903 0.83742
                  }
                }
              }
              JOINT rRing1
              {
                OFFSET -8.82822 0.546677 1.51678
                CHANNELS 3 Zrotation Xrotation Yrotation
                JOINT rRing2
                {
                  OFFSET -2.60934 -0.819778 -0.0198488
                  CHANNELS 3 Zrotation Xrotation Yrotation
                  End Site
                  {
                    OFFSET -2.33842 -0.294052 0.168128
                  }
                }
              }
              JOINT rPinky1
              {
                OFFSET -8.27202 -0.0477905 -0.4584
                CHANNELS 3 Zrotation Xrotation Yrotation
                JOINT rPinky2
                {
                  OFFSET -1.82734 -0.647385 -0.700984
                  CHANNELS 3 Zrotation Xrotation Yrotation
                  End Site
                  {
                    OFFSET -1.69225 -0.51767 -0.607171
                  }
                }
              }
            }
          }
        }
      }
      JOINT lCollar
      {
        OFFSET 2.68224 19.2634 -4.8768
        CHANNELS 3 Zrotation Xrotation Yrotation
        JOINT lShldr
        {
          OFFSET 8.77824 -1.95073 1.46304
          CHANNELS 3 Zrotation Xrotation Yrotation
          JOINT lForeArm
          {
            OFFSET 28.1742 -1.7115 0.48768
            CHANNELS 3 Zrotation Xrotation Yrotation
            JOINT lHand
            {
              OFFSET 22.5879 0.773209 7.07136
              CHANNELS 3 Zrotation Xrotation Yrotation
              JOINT lThumb1
              {
                OFFSET 1.2192 -0.487915 3.41376
                CHANNELS 3 Zrotation Xrotation Yrotation
                JOINT lThumb2
                {
                  OFFSET 3.37035 -0.52449 3.41376
                  CHANNELS 3 Zrotation Xrotation Yrotation
                  End Site
                  {
                    OFFSET 1.78271 -1.18214 1.43049
                  }
                }
              }
              JOINT lIndex1
              {
                OFFSET 7.75947 0.938293 5.60832
                CHANNELS 3 Zrotation Xrotation Yrotation
                JOINT lIndex2
                {
                  OFFSET 2.54057 -0.884171 1.56538
                  CHANNELS 3 Zrotation Xrotation Yrotation
                  End Site
                  {
                    OFFSET 1.62519 -0.234802 1.16502
                  }
                }
              }
              JOINT lMid1
              {
                OFFSET 8.24714 1.18213 3.41376
                CHANNELS 3 Zrotation Xrotation Yrotation
                JOINT lMid2
                {
                  OFFSET 3.10165 -0.590103 1.0647
                  CHANNELS 3 Zrotation Xrotation Yrotation
                  End Site
                  {
                    OFFSET 2.48547 -0.328903 0.83742
                  }
                }
              }
              JOINT lRing1
              {
                OFFSET 8.82822 0.546677 1.51678
                CHANNELS 3 Zrotation Xrotation Yrotation
                JOINT lRing2
                {
                  OFFSET 2.60934 -0.819778 -0.0198488
                  CHANNELS 3 Zrotation Xrotation Yrotation
                  End Site
                  {
                    OFFSET 2.33842 -0.294052 0.168128
                  }
                }
              }
              JOINT lPinky1
              {
                OFFSET 8.27202 -0.0477905 -0.4584
                CHANNELS 3 Zrotation Xrotation Yrotation
                JOINT lPinky2
                {
                  OFFSET 1.82734 -0.647385 -0.700984
                  CHANNELS 3 Zrotation Xrotation Yrotation
                  End Site
                  {
                    OFFSET 1.69225 -0.51767 -0.607171
                  }
                }
              }
            }
          }
        }
      }
    }
  }
  JOINT rButtock
  {
    OFFSET -8.77824 4.35084 1.2192
    CHANNELS 3 Zrotation Xrotation Yrotation
    JOINT rThigh
    {
      OFFSET 0 -1.70687 -2.19456
      CHANNELS 3 Zrotation Xrotation Yrotation
      JOINT rShin
      {
        OFFSET 0 -36.8199 0.73152
        CHANNELS 3 Zrotation Xrotation Yrotation
        JOINT rFoot
        {
          OFFSET 0.73152 -45.1104 -5.12064
          CHANNELS 3 Zrotation Xrotation Yrotation
          End Site
          {
            OFFSET -1.1221 -3.69964 12.103
          }
        }
      }
    }
  }
  JOINT lButtock
  {
    OFFSET 8.77824 4.35084 1.2192
    CHANNELS 3 Zrotation Xrotation Yrotation
    JOINT lThigh
    {
      OFFSET 0 -1.70687 -2.19456
      CHANNELS 3 Zrotation Xrotation Yrotation
      JOINT lShin
      {
        OFFSET 0 -36.8199 0.73152
        CHANNELS 3 Zrotation Xrotation Yrotation
        JOINT lFoot
        {
          OFFSET -0.73152 -45.1104 -5.12064
          CHANNELS 3 Zrotation Xrotation Yrotation
          End Site
          {
            OFFSET 1.1221 -3.69964 12.103
          }
        }
      }
    }
  }
}
MOTION
Frames:	6
Frame Time:	0.00833333
62.161 85.1987 127.085 0.0 0.0 0.0 0.589731 -0.00310819 0.0168533 0.162771 -0.00479473 0.0282027 9.66283e-15 0.0 1.98785e-16 2.8889e-14 3.18055e-15 5.87036e-16 -0.0 0.0 0.0 -0.0 0.0 0.0 4.91873e-15 -5.04727e-18 2.48481e-16 1.02572e-13 1.67725e-16 3.37934e-15 1.74205e-12 -5.20021e-13 -9.54166e-15 1.9867e-11 5.18679e-13 4.64361e-13 4.68701e-11 -7.95168e-15 1.00824e-12 8.09213e-11 -1.27222e-14 1.74215e-12 4.68742e-11 -1.03368e-14 1.00506e-12 7.73091 5.47488 0.417314 4.68695e-11 -8.44835e-15 1.01142e-12 2.90554 0.965183 0.102902 4.68712e-11 -8.24956e-15 1.01062e-12 10.2786 0.731801 0.0259123 4.68589e-11 -4.37326e-15 1.01778e-12 2.22167 -0.733487 -0.20892 4.82204e-15 -4.27076e-18 -4.96962e-17 9.9452e-14 7.45443e-17 1.59028e-15 1.73459e-12 5.16443e-13 5.725e-14 1.98683e-11 -5.39576e-13 4.23014e-13 4.68624e-11 -5.23757e-14 1.0146e-12 8.09451e-11 -8.90555e-14 1.74931e-12 4.68619e-11 -5.1684e-14 1.02414e-12 -7.73091 5.47488 -0.417314 4.68631e-11 -5.24792e-14 1.0146e-12 -2.90554 0.965183 -0.102902 4.68554e-11 -5.26779e-14 1.01062e-12 -10.2786 0.731801 -0.0259123 4.68689e-11 -5.04913e-14 1.00187e-12 -2.22167 -0.733487 0.20892 -2.03217e-16 0.0 -3.88251e-19 0.942585 -4.57989 -0.0791186 -0.00186692 2.74409 -0.00695611 -0.499334 1.83607 0.0942947 2.03217e-16 0.0 3.88251e-19 -0.044623 -2.31105 0.0215225 0.00817095 -1.36559 0.0698346 0.491004 3.6768 -0.130673
61.0522 82.6748 117.509 -178.709 -17.6544 -169.859 0.418086 -1.64743 4.29545 -0.384985 0.625896 1.26183 2.83421 3.6552 2.3628 -1.2813 -4.40137 4.23382 -0.0 0.0 0.0 -0.0 0.0 0.0 4.88001e-14 -1.62454e-13 3.62871e-14 22.1639 8.95387 -2.81686 -17.9158 -15.4688 15.0689 0.0287856 3.76696 0.525293 4.73052e-10 1.99702e-09 -6.54623e-10 8.10355e-10 3.45198e-09 -1.13477e-09 4.73056e-10 1.99702e-09 -6.54623e-10 7.73091 5.47488 0.417314 4.73052e-10 1.99702e-09 -6.54619e-10 2.90554 0.965183 0.102902 4.73051e-10 1.99701e-09 -6.54619e-10 10.2786 0.731801 0.0259123 4.73041e-10 1.99702e-09 -6.54611e-10 2.22167 -0.733487 -0.20892 4.8752e-14 -1.62454e-13 3.60014e-14 -18.3517 19.9955 -1.25389 21.8295 -19.6806 -15.0518 -0.00118242 -0.786985 0.110569 -1.05073e-10 1.72167e-09 7.04275e-10 -1.83512e-10 2.95473e-09 1.21667e-09 -1.05074e-10 1.72167e-09 7.04283e-10 -7.73091 5.47488 -0.417314 -1.05073e-10 1.72166e-09 7.04275e-10 -2.90554 0.965183 -0.102902 -1.05081e-10 1.72167e-09 7.04272e-10 -10.2786 0.731801 -0.0259123 -1.05068e-10 1.72167e-09 7.04264e-10 -2.22167 -0.733487 0.20892 -2.03217e-16 0.0 -3.88251e-19 1.38498 -15.0149 1.6411 -0.0240218 13.5969 0.126459 -0.782547 -0.561661 -2.34346 2.03217e-16 0.0 3.88251e-19 -1.77854 -6.18818 -1.59866 -0.0993054 8.36949 -0.209736 1.84758 -4.81115 6.99633
61.2085 82.659 117.854 -178.361 -17.9265 -169.804 0.53193 -3.37191 8.8678 -1.01367 1.28186 2.57718 5.54332 7.51889 4.97027 -1.99508 -9.01667 8.94081 -0.0 0.0 0.0 -0.0 0.0 0.0 9.80451e-14 -3.39774e-13 7.88833e-14 46.6201 18.3171 -6.06291 -27.4644 -28.1158 34.3567 -0.0164753 7.73385 1.08621 8.92663e-10 4.06091e-09 -1.34004e-09 1.52813e-09 7.01869e-09 -2.32256e-09 8.92668e-10 4.0609e-09 -1.34004e-09 7.73091 5.47488 0.417314 8.92663e-10 4.06091e-09 -1.34004e-09 2.90554 0.965183 0.102902 8.9266e-10 4.0609e-09 -1.34004e-09 10.2786 0.731801 0.0259123 8.92652e-10 4.06091e-09 -1.34003e-09 2.22167 -0.733487 -0.20892 9.805e-14 -3.39775e-13 7.861e-14 -36.4876 41.1398 -3.26053 32.0381 -35.6258 -36.7692 0.000942693 -1.64127 0.230667 -2.51084e-10 3.60087e-09 1.42534e-09 -4.37855e-10 6.17984e-09 2.46224e-09 -2.51087e-10 3.60087e-09 1.42534e-09 -7.73091 5.47488 -0.417314 -2.51086e-10 3.60086e-09 1.42534e-09 -2.90554 0.965183 -0.102902 -2.51093e-10 3.60087e-09 1.42533e-09 -10.2786 0.731801 -0.0259123 -2.51083e-10 3.60087e-09 1.42533e-09 -2.22167 -0.733487 0.20892 -2.03217e-16 0.0 -3.88251e-19 2.62415 -25.9927 3.76069 -0.107462 25.0533 0.28706 -1.31005 -3.08683 -4.96589 2.03217e-16 0.0 3.88251e-19 -3.85387 -10.2629 -3.38043 -0.105218 18.6535 -0.529093 5.62178 -13.4257 14.9235
61.3316 82.6476 118.192 -178.196 -18.2002 -169.752 0.806886 -4.82576 12.8938 -1.56194 1.88374 3.73089 7.58669 10.8903 7.20439 -1.86758 -12.9124 12.9982 -0.0 0.0 0.0 -0.0 0.0 0.0 1.36563e-13 -4.87352e-13 1.08364e-13 69.3867 26.5861 -9.34287 -28.6787 -32.5858 54.8297 -0.124315 11.297 1.60355 1.32542e-09 5.99108e-09 -1.96589e-09 2.26922e-09 1.0356e-08 -3.40779e-09 1.32542e-09 5.99107e-09 -1.96588e-09 7.73091 5.47488 0.417314 1.32542e-09 5.99107e-09 -1.96588e-09 2.90554 0.965183 0.102902 1.32541e-09 5.99106e-09 -1.96588e-09 10.2786 0.731801 0.0259123 1.3254e-09 5.99108e-09 -1.96587e-09 2.22167 -0.733487 -0.20892 1.36612e-13 -4.87353e-13 1.08104e-13 -50.246 59.8113 -7.04297 30.4366 -40.17 -62.0631 0.00557157 -2.36092 0.331957 -4.08943e-10 5.16511e-09 2.1108e-09 -7.12427e-10 8.86437e-09 3.64651e-09 -4.08947e-10 5.1651e-09 2.1108e-09 -7.73091 5.47488 -0.417314 -4.08945e-10 5.16509e-09 2.1108e-09 -2.90554 0.965183 -0.102902 -4.08953e-10 5.1651e-09 2.11079e-09 -10.2786 0.731801 -0.0259123 -4.08943e-10 5.1651e-09 2.11079e-09 -2.22167 -0.733487 0.20892 -2.03217e-16 0.0 -3.88251e-19 4.52908 -35.7502 6.05741 -0.249426 35.3018 0.468856 -1.96132 -5.31595 -7.24988 2.03217e-16 0.0 3.88251e-19 -5.92099 -13.8995 -4.95653 -2.78008e-05 27.8371 -0.861881 11.0685 -20.3482 22.6603
61.412 82.6398 118.5 -178.285 -18.4014 -169.675 0.948416 -5.71488 15.5121 -1.85256 2.35378 4.47888 8.67184 13.1144 8.38346 -1.17753 -15.3372 15.1148 -0.0 0.0 0.0 -0.0 0.0 0.0 1.48263e-13 -5.60572e-13 1.05058e-13 85.7706 32.3917 -11.8579 -28.0283 -30.7835 68.5007 -0.24136 13.8545 1.98638 1.79102e-09 7.58693e-09 -2.44278e-09 3.06862e-09 1.31197e-08 -4.23658e-09 1.79102e-09 7.58692e-09 -2.44278e-09 7.73091 5.47488 0.417314 1.79102e-09 7.58692e-09 -2.44278e-09 2.90554 0.965183 0.102902 1.79101e-09 7.58691e-09 -2.44278e-09 10.2786 0.731801 0.0259123 1.79101e-09 7.58693e-09 -2.44277e-09 2.22167 -0.733487 -0.20892 1.48334e-13 -5.60573e-13 1.04809e-13 -55.5428 72.4081 -13.7618 28.4188 -36.5619 -77.954 0.00924358 -2.74401 0.385944 -5.96418e-10 5.94191e-09 2.70725e-09 -1.03757e-09 1.01975e-08 4.67753e-09 -5.96423e-10 5.94191e-09 2.70725e-09 -7.73091 5.47488 -0.417314 -5.9642e-10 5.94189e-09 2.70725e-09 -2.90554 0.965183 -0.102902 -5.96428e-10 5.9419e-09 2.70725e-09 -10.2786 0.731801 -0.0259123 -5.96419e-10 5.9419e-09 2.70724e-09 -2.22167 -0.733487 0.20892 -2.03217e-16 0.0 -3.88251e-19 6.32118 -42.5935 7.87863 -0.403584 42.5314 0.636263 -2.47412 -6.85005 -8.65199 2.03217e-16 0.0 3.88251e-19 -7.46596 -16.4841 -5.9091 0.151816 34.2724 -1.13823 15.9496 -24.4906 28.4352
61.4989 82.6128 118.781 -178.432 -18.5016 -169.604 0.661605 -5.90526 16.1508 -1.74926 2.64571 4.66348 8.74382 13.7528 7.97657 -0.317836 -15.9071 14.2716 -0.0 0.0 0.0 -0.0 0.0 0.0 1.16016e-13 -5.29935e-13 5.68928e-14 92.0416 34.9591 -12.6083 -27.9708 -28.9987 73.0627 -0.306373 15.0878 2.17468 2.4667e-09 9.19987e-09 -2.84646e-09 4.23172e-09 1.59217e-08 -4.94195e-09 2.46671e-09 9.19986e-09 -2.84645e-09 7.73091 5.47488 0.417314 2.4667e-09 9.19986e-09 -2.84645e-09 2.90554 0.965183 0.102902 2.4667e-09 9.19985e-09 -2.84645e-09 10.2786 0.731801 0.0259123 2.4667e-09 9.19988e-09 -2.84644e-09 2.22167 -0.733487 -0.20892 1.16077e-13 -5.29934e-13 5.66591e-14 -55.8565 76.8566 -18.1046 28.3316 -33.8945 -82.7645 0.00832117 -2.60155 0.365874 -8.78055e-10 5.63263e-09 3.31536e-09 -1.52488e-09 9.66636e-09 5.7298e-09 -8.78062e-10 5.63262e-09 3.31537e-09 -7.73091 5.47488 -0.417314 -8.78059e-10 5.63261e-09 3.31536e-09 -2.90554 0.965183 -0.102902 -8.78066e-10 5.63262e-09 3.31536e-09 -10.2786 0.731801 -0.0259123 -8.78057e-10 5.63261e-09 3.31536e-09 -2.22167 -0.733487 0.20892 -2.03217e-16 0.0 -3.88251e-19 6.82867 -45.4563 8.25207 -0.484415 45.4955 0.718419 -2.60116 -7.46109 -8.80073 2.03217e-16 0.0 3.88251e-19 -8.0475 -17.6505 -5.92188 0.234955 36.8737 -1.25412 17.8343 -25.8339 30.4684
